<?xml version="1.0" standalone="no"?><!DOCTYPE svg PUBLIC "-//W3C//DTD SVG 1.1//EN" "http://www.w3.org/Graphics/SVG/1.1/DTD/svg11.dtd"><svg class="icon" width="200px" height="132.90px" viewBox="0 0 1541 1024" version="1.1" xmlns="http://www.w3.org/2000/svg"><path fill="#707070" d="M1164.434286 407.649524l57.539048-4.87619c4.87619 0 7.801905 1.950476 7.801905 6.826667 0 2.925714 0 4.87619-0.975238 5.851429-0.975238 0.975238-2.925714 1.950476-5.851429 1.950476l-67.291429 4.87619c-7.801905 0.975238-11.702857-0.975238-11.702857-5.851429 0-1.950476 0.975238-4.87619 2.925714-7.801905l53.638095-79.969524-54.613333 3.900952c-4.87619 0-7.801905-1.950476-7.801905-7.801905 0-4.87619 1.950476-6.826667 6.826667-7.801905l64.365714-4.87619c7.801905-0.975238 11.702857 0.975238 11.702857 5.851429 0 0.975238 0 1.950476-0.975238 3.900952 0 0.975238-0.975238 2.925714-1.950476 3.900952L1164.434286 407.649524zM1005.470476 558.811429l39.984762-5.851429c3.900952-0.975238 5.851429 0.975238 5.851429 4.87619 0 1.950476 0 2.925714-0.975238 3.900952-0.975238 0.975238-1.950476 0.975238-3.900952 1.950476l-46.811429 6.826667c-4.87619 0.975238-7.801905-0.975238-8.777143-3.900952 0-1.950476 0-2.925714 0.975238-5.851429l34.133333-59.489524-39.009524 5.851429c-3.900952 0.975238-5.851429-0.975238-5.851429-4.87619-0.975238-2.925714 0.975238-4.87619 4.87619-5.851429l45.83619-6.826667c4.87619-0.975238 7.801905 0 8.777143 3.900952 0 0.975238 0 1.950476 0 2.925714 0 0.975238-0.975238 1.950476-0.975238 2.925714L1005.470476 558.811429zM1411.169524 204.8l65.340952 7.801905c5.851429 0.975238 8.777143 3.900952 7.801905 9.752381 0 2.925714-0.975238 4.87619-2.925714 5.851429-0.975238 0.975238-3.900952 0.975238-6.826667 0.975238l-77.04381-8.777143c-8.777143-0.975238-12.678095-3.900952-11.702857-9.752381 0-2.925714 1.950476-4.87619 4.87619-7.801905l78.994286-78.994286-62.415238-6.826667c-5.851429-0.975238-8.777143-3.900952-7.801905-9.752381 0.975238-4.87619 3.900952-7.801905 9.752381-6.826667l74.118095 8.777143c8.777143 0.975238 12.678095 3.900952 11.702857 9.752381 0 0.975238-0.975238 2.925714-0.975238 3.900952-0.975238 0.975238-1.950476 2.925714-2.925714 3.900952L1411.169524 204.8zM808.472381 302.32381 504.198095 302.32381 383.268571 132.632381 383.268571 302.32381l0 7.801905L383.268571 351.085714l0 518.826667c-55.588571-2.925714-111.177143-16.579048-155.062857-46.811429C168.71619 780.190476 155.062857 702.171429 162.864762 634.88 167.740952 591.969524 185.295238 554.910476 204.8 516.87619c18.529524-37.059048 36.08381-76.068571 38.034286-118.00381 0.975238-39.984762-13.653333-84.845714-43.885714-113.127619-34.133333-32.182857-80.944762-34.133333-121.904762-12.678095-32.182857 16.579048-3.900952 63.390476 28.281905 47.786667 30.232381-15.60381 55.588571-1.950476 69.241905 26.331429 16.579048 34.133333 12.678095 71.192381-0.975238 105.325714-14.628571 37.059048-37.059048 71.192381-50.712381 109.226667-15.60381 41.935238-21.455238 88.746667-17.554286 133.607619 5.851429 72.167619 35.108571 136.533333 97.52381 178.468571 44.860952 29.257143 98.499048 42.910476 151.161905 48.761905 13.653333 1.950476 20.48 1.950476 29.257143 2.925714l0 0 1.950476 0c11.702857 0 27.306667 0 61.44 0l481.767619 0L928.426667 351.085714l0-48.761905L928.426667 132.632381 808.472381 302.32381zM556.860952 498.346667c-24.380952 17.554286-56.56381 14.628571-81.92 0-4.87619-2.925714 0-10.727619 4.87619-7.801905 22.430476 12.678095 50.712381 15.60381 72.167619 0C556.860952 486.64381 561.737143 494.445714 556.860952 498.346667zM710.948571 689.493333c-15.60381 19.504762-37.059048 18.529524-51.687619 0-17.554286 17.554286-40.96 21.455238-57.539048 0-3.900952-4.87619 4.87619-9.752381 7.801905-4.87619 13.653333 18.529524 34.133333 9.752381 46.811429-5.851429 1.950476-1.950476 5.851429-0.975238 7.801905 0.975238 1.950476 2.925714 4.87619 5.851429 7.801905 8.777143 11.702857 10.727619 23.405714 4.87619 32.182857-5.851429C708.022857 678.765714 713.874286 685.592381 710.948571 689.493333zM840.655238 498.346667c-24.380952 17.554286-56.56381 14.628571-81.92 0-4.87619-2.925714 0-10.727619 4.87619-7.801905 22.430476 12.678095 50.712381 15.60381 72.167619 0C840.655238 486.64381 845.531429 494.445714 840.655238 498.346667z" /></svg>