<?xml version="1.0" standalone="no"?><!DOCTYPE svg PUBLIC "-//W3C//DTD SVG 1.1//EN" "http://www.w3.org/Graphics/SVG/1.1/DTD/svg11.dtd"><svg class="icon" width="200px" height="200.00px" viewBox="0 0 1024 1024" version="1.1" xmlns="http://www.w3.org/2000/svg"><path fill="#707070" d="M605.781339 400.608529c16.4635 0 29.797574 13.339022 29.797574 29.795101 0 16.451131-13.334074 29.785205-29.797574 29.785204-16.448657 0-29.7951-13.3316-29.7951-29.785204 0-16.458552 13.34397-29.7951 29.7951-29.795101zM917.872891 840.222318c-20.728424-38.995364-44.210249-83.205613-44.210248-152.58238 0-116.068292 64.379582-156.90173 67.001867-158.504787 9.524339-5.63544 12.653764-17.925548 7.018324-27.449886a20.040693 20.040693 0 0 0-27.462255-7.033168c-3.535138 2.102776-86.636848 52.915742-86.636848 192.987841 0 79.368665 27.108494 130.391908 48.883359 171.393568 15.614968 29.35228 27.929814 52.559507 27.929814 79.084171 0 19.006622-4.136284 32.729091-11.948716 39.735047-7.958389 7.122226-18.355998 6.065891-18.551433 6.06589a19.528605 19.528605 0 0 0-2.896883-0.207804h-73.757963c8.584274-13.437976 13.64578-29.327542 13.645779-46.431769V33.899224a20.053062 20.053062 0 0 0-14.677377-19.308432c-8.648594-2.43922-17.873597 1.244349-22.52939 8.942983l-97.87062 162.000343c-30.030116-0.57146-118.272496-1.259192-382.428175-1.259192-56.089697 0-83.851289 0.039582-97.875568 0.138536L111.346941 10.813217C107.082016 2.607442 97.720952-1.625322 88.812603 0.578882a20.043167 20.043167 0 0 0-15.298314 19.464285v917.211135c0 47.695909 38.792508 86.508208 86.500786 86.508208h715.88888c1.31609 0.116271 3.181377 0.235016 5.504325 0.235016 9.798937 0 27.422674-2.179466 42.946109-15.57786 17.324401-14.976713 26.118953-38.62676 26.118953-70.329201 0.002474-36.48935-15.822772-66.311662-32.600451-97.868147zM284.595899 500.262799c-38.522858 0-69.866591-31.336311-69.86659-69.859169 0-38.530279 31.356102-69.871538 69.86659-69.871539 38.51791 0 69.866591 31.341259 69.866591 69.871539 0 38.522858-31.336311 69.859169-69.866591 69.859169z m195.664551 80.506637h-14.798595l-1.617901 27.838282a20.038219 20.038219 0 0 1-19.986268 18.877981c-0.385921 0-0.781738-0.012369-1.175081-0.027212-11.043285-0.653098-19.489023-10.135381-18.830978-21.161349l1.481838-25.515332h-15.204308a20.038219 20.038219 0 1 1 0-40.078913h70.133767c11.063076 0 20.038219 8.962774 20.038219 20.040693a20.028324 20.028324 0 0 1-20.040693 20.02585z m125.520889-80.506637c-38.522858 0-69.871538-31.336311-69.871538-69.859169 0-38.530279 31.36105-69.871538 69.871538-69.871539 38.537701 0 69.898751 31.341259 69.898751 69.871539-0.002474 38.522858-31.36105 69.859169-69.898751 69.859169zM284.595899 430.396208m-29.790152 0a29.790152 29.790152 0 1 0 59.580305 0 29.790152 29.790152 0 1 0-59.580305 0Z" /></svg>